<svg xmlns="http://www.w3.org/2000/svg" width="238" height="40" viewBox="0 0 238 40">
    <path fill="#FFF" fill-rule="evenodd" d="M19.127 39.113C8.563 39.113 0 30.357 0 19.557 0 8.756 8.563 0 19.127 0c10.564 0 19.127 8.756 19.127 19.557 0 10.8-8.563 19.556-19.127 19.556zm9.788-10.865a1 1 0 0 0 .912-1.41L22.034 9.51a2 2 0 0 0-1.824-1.18h-2.268a2 2 0 0 0-1.828 1.189L8.417 26.84a1 1 0 0 0 .914 1.406l19.584.001zM16.652 14.114a1 1 0 0 1 1.842.03l3.974 9.825a1 1 0 0 1-.927 1.375l-8.316.006a1 1 0 0 1-.916-1.404l4.343-9.832zM50.62 12.34h3.96V28h-3.96V12.34zM72.76 28v-9.4h-.04L68.9 28h-2.42l-3.86-9.28h-.04V28H58.8V12.34h4.74l4.16 9.86 4-9.86h4.92V28h-3.86zm12.04 0h-3.94V12.34h6.12c3.34 0 5.86 1.62 5.86 5.08 0 3.56-2.72 5.18-6.1 5.18H84.8V28zm0-12.2v3.44h1.88c1.44 0 2.2-.58 2.2-1.66 0-1.04-.6-1.78-2.22-1.78H84.8zm19.32 9.32h-6.04L97.04 28H92.9l6.02-15.66h4.44L109.38 28h-4.18l-1.08-2.88zm-4.88-3.34H103l-1.9-5-1.86 5zm19.32 6.46c-4.52 0-8.08-3.48-8.08-8.08 0-4.44 3.4-8.08 8.18-8.08 4.74 0 6.88 3.34 7.44 5.46l-3.68 1.14c-.24-.96-1.34-2.9-3.82-2.9-2.36 0-4.08 1.96-4.08 4.36 0 2.34 1.6 4.36 4.08 4.36 2.42 0 3.58-1.78 3.88-2.9l3.72 1.16c-.46 1.94-2.74 5.48-7.64 5.48zm17.52-.24h-3.94V15.92h-4.44v-3.58h12.8v3.58h-4.42V28zm24.3-15.66V28h-1.62V14.58h-.02L152.92 28h-1.48l-5.78-13.32V28h-1.62V12.34h2.32l5.86 13.42 5.8-13.42h2.36zM175.56 24h-8.54l-1.72 4h-1.68l6.76-15.66h1.86L179 28h-1.74l-1.7-4zm-4.28-9.96l-3.64 8.46h7.28l-3.64-8.46zm12.6 7.84V28h-1.64V12.34h5.24c3.82 0 5.5 2.26 5.5 4.7 0 2.66-1.98 4.84-5.78 4.84h-3.32zm0-8v6.48h3.38c2.88 0 4.04-1.68 4.04-3.26 0-1.54-.88-3.22-3.96-3.22h-3.46zm14.62 8V28h-1.64V12.34h5.24c3.82 0 5.5 2.26 5.5 4.7 0 2.66-1.98 4.84-5.78 4.84h-3.32zm0-8v6.48h3.38c2.88 0 4.04-1.68 4.04-3.26 0-1.54-.88-3.22-3.96-3.22h-3.46zm12.98-1.54h9.8v1.52h-8.16v5.42h7.46v1.52h-7.46v5.68h8.24V28h-9.88V12.34zM235.22 28l-4.62-6.34h-3.2V28h-1.64V12.34h5.42c3.82 0 5.5 2.12 5.5 4.56 0 2.68-1.96 4.18-4.3 4.48l4.84 6.62h-2zm-7.82-7.84h3.64c2.84 0 3.98-1.62 3.98-3.2 0-1.54-.96-3.08-3.94-3.08h-3.68v6.28z"/>
</svg>
