<?xml version="1.0" encoding="UTF-8" standalone="no"?><!DOCTYPE svg PUBLIC "-//W3C//DTD SVG 1.1//EN" "http://www.w3.org/Graphics/SVG/1.1/DTD/svg11.dtd"><svg width="100%" height="100%" viewBox="0 0 331 121" version="1.1" xmlns="http://www.w3.org/2000/svg" xmlns:xlink="http://www.w3.org/1999/xlink" xml:space="preserve" xmlns:serif="http://www.serif.com/" style="fill-rule:evenodd;clip-rule:evenodd;stroke-linejoin:round;stroke-miterlimit:1.41421;"><g id="text-white" serif:id="text white"><path d="M26.448,120.67c15.529,0 25.835,-9.26 25.984,-21.506c0,-25.984 -35.841,-21.055 -35.692,-34.495c0,-4.48 4.033,-7.466 9.708,-7.466c6.272,0 12.243,4.329 15.529,7.317l8.213,-10.305c-4.627,-5.224 -13.44,-10.75 -23.891,-10.601c-14.637,0 -24.043,9.407 -24.043,20.757c-0.15,25.386 35.539,20.01 35.539,34.495c0,4.928 -4.627,8.215 -10.899,8.215c-7.018,0 -13.44,-4.182 -18.07,-8.663l-8.812,10.454c6.123,6.869 17.025,11.798 26.434,11.798Z" style="fill:#fff;fill-rule:nonzero;"/><path d="M133.219,119.473l-35.393,-36.883l33.303,-37.782l-17.174,0l-30.614,35.391l0,-80.191l-14.036,0l0,119.465l14.036,0l0,-34.346l31.659,34.346l18.219,0Z" style="fill:#fff;fill-rule:nonzero;"/><path d="M154.869,30.772c5.525,0 9.558,-4.183 9.558,-9.708c0,-5.228 -4.033,-9.407 -9.558,-9.407c-5.526,0 -9.556,4.179 -9.556,9.407c0,5.525 4.03,9.708 9.556,9.708Zm-7.019,88.701l14.037,0l0,-74.665l-14.037,0l0,74.665Z" style="fill:#fff;fill-rule:nonzero;"/><rect x="186.677" y="0.008" width="14.039" height="119.464" style="fill:#fff;fill-rule:nonzero;"/><rect x="222.965" y="0.008" width="14.037" height="119.464" style="fill:#fff;fill-rule:nonzero;"/><path d="M292.698,120.67c22.551,0 38.08,-17.771 38.08,-38.528c0,-20.759 -15.529,-38.528 -38.08,-38.528c-22.547,0 -38.077,17.769 -38.077,38.528c0,20.757 15.53,38.528 38.077,38.528Zm0,-14.04c-14.036,0 -23.742,-11.347 -23.742,-24.637c0,-13.141 9.706,-24.342 23.742,-24.342c14.338,0 23.596,11.201 23.596,24.342c0,13.29 -9.258,24.637 -23.596,24.637Z" style="fill:#fff;fill-rule:nonzero;"/></g></svg>